<?xml version="1.0" standalone="no"?>
<!DOCTYPE svg PUBLIC "-//W3C//DTD SVG 1.1//EN" "http://www.w3.org/Graphics/SVG/1.1/DTD/svg11.dtd" >
<svg xmlns="http://www.w3.org/2000/svg">
<metadata>
Created by FontPrep 20130207 at Fri Jul 25 11:52:47 2014
 By Nico Watine
(c)1988 KaiBuskirk.com
</metadata>
<defs>
<font id="238fcb5280165dfdffd25c9da103f2fc" horiz-adv-x='1024' >
  <font-face 
    font-family="AbeatbyKai"
    font-weight="400"
    font-stretch="normal"
    units-per-em="2048"
    panose-1="0 0 4 0 0 0 0 0 0 0"
    ascent="1638"
    descent="-410"
    x-height="1206"
    cap-height="1616"
    bbox="-35 -410 9470 1638.14"
    underline-thickness="40"
    underline-position="-252"
    unicode-range="U+0020-2122"
  />
<missing-glyph horiz-adv-x="1024" 
d="M256 129h512v1382h-512v-1382zM897 1638v-1638h-768v1638h768z" />
    <glyph glyph-name=".notdef" horiz-adv-x="1024" 
d="M256 129h512v1382h-512v-1382zM897 1638v-1638h-768v1638h768z" />
    <glyph glyph-name=".null" horiz-adv-x="0" 
 />
    <glyph glyph-name="nonmarkingreturn" horiz-adv-x="681" 
 />
    <glyph glyph-name="space" unicode=" " horiz-adv-x="1024" 
 />
    <glyph glyph-name="exclam" unicode="!" horiz-adv-x="331" 
d="M160 233v-194h-158v194h158zM160 1618v-1235h-158v1235h158z" />
    <glyph glyph-name="quotedbl" unicode="&#x22;" horiz-adv-x="524" 
d="M113 1618v-483h-113v483h113zM346 1618v-483h-117v483h117z" />
    <glyph glyph-name="numbersign" unicode="#" horiz-adv-x="1323" 
d="M459 645h205l81 268h-202zM723 510l-150 -492h-92l146 492h-201l-147 -492h-93l146 492h-332l39 133h330l77 270h-331l37 138h335l170 583h95l-168 -583h196l172 583h92l-163 -583h333l-38 -138h-334l-82 -268h336l-39 -135h-334z" />
    <glyph glyph-name="dollar" unicode="$" horiz-adv-x="997" 
d="M500 18h-138v60q-96 8 -178 58t-133 139t-51 182v32h150v-26q0 -106 89 -182t197 -79t192 80q83 83 83 197q2 197 -236 281l-156 53q-129 43 -201 141t-71 234q2 136 88 237q86 102 225 127v82h140v-82q211 -26 307 -219q33 -63 33 -104l2 -70h-146l-10 68
q-12 86 -85 137t-170 51q-97 -1 -164 -71t-68 -170q-6 -176 188 -236l199 -61q129 -41 206 -161t72 -245q-8 -168 -103 -275t-233 -116l-28 -2v-60z" />
    <glyph glyph-name="percent" unicode="%" horiz-adv-x="1675" 
d="M1360 238q63 68 59 158t-65 152q-60 60 -150 63t-153 -60t-67 -155t62 -162t158 -67t156 71zM221 1423q-65 -61 -67 -150t63 -163q66 -70 158 -68t155 71q64 69 60 159t-66 150t-150 61q-87 1 -153 -60zM1462 651q109 -109 110 -259q2 -150 -106 -260t-262 -113t-266 110
q-111 113 -109 267t114 262t261 105t258 -112zM1210 1634l-702 -1620h-156l707 1620h151zM634 1003q-108 -110 -260 -112q-152 -3 -264 111q-114 114 -110 269t118 263t261 104q147 -2 253 -108t109 -262q1 -156 -107 -265z" />
    <glyph glyph-name="ampersand" unicode="&#x26;" horiz-adv-x="1544" 
d="M479 170q197 0 295 178l76 135l-377 361l-117 -60q-195 -102 -194 -299q0 -127 90 -223q92 -92 227 -92zM562 1487q-88 1 -154 -61t-67 -145t101 -181l78 -72l142 72q121 61 116 188q0 82 -64 140t-152 59zM0 500q0 72 17 130t95 147t164 147l74 45l-47 53
q-121 133 -115 276t115 242q113 98 263 95t261 -109q117 -106 111 -256q-10 -213 -233 -324l-74 -35l295 -288l227 442h174l-285 -553l390 -383l-105 -106l-360 346l-45 -80q-154 -270 -435 -271q-195 0 -342 142q-145 145 -145 340z" />
    <glyph glyph-name="quotesingle" unicode="'" horiz-adv-x="313" 
d="M133 1618v-481h-135v481h135z" />
    <glyph glyph-name="parenleft" unicode="(" horiz-adv-x="548" 
d="M0 350v731q0 197 108 337t236 190l74 30v-161l-39 -19q-92 -45 -160 -143q-68 -104 -67 -254v-713q0 -92 65 -219q39 -80 127 -123l74 -35v-164l-78 27q-37 12 -118 75q-222 173 -222 441z" />
    <glyph glyph-name="parenright" unicode=")" horiz-adv-x="581" 
d="M266 348v713q0 277 -229 397l-37 19v161l76 -30q131 -53 225 -178q117 -154 117 -349v-731q0 -268 -220 -442q-79 -62 -120 -74l-78 -27v164l74 35q90 43 129 123q63 125 63 219z" />
    <glyph glyph-name="asterisk" unicode="*" horiz-adv-x="780" 
d="M0 1251v115h219l-113 190l101 62l110 -195l115 195l98 -62l-112 -190h213v-111h-213l112 -188l-98 -59l-115 190l-108 -190l-103 59l115 184h-221z" />
    <glyph glyph-name="plus" unicode="+" 
d="M606 743v-464h-157v464h-449v162h449v457h157v-457h447v-162h-447z" />
    <glyph glyph-name="comma" unicode="," horiz-adv-x="512" 
d="M354 303l-176 -414h-160l179 414h157z" />
    <glyph glyph-name="period" unicode="." horiz-adv-x="323" 
d="M156 291v-273h-156v273h156z" />
    <glyph glyph-name="slash" unicode="/" horiz-adv-x="919" 
d="M813 1618l-666 -1579h-147l664 1579h149z" />
    <glyph glyph-name="zero" unicode="0" horiz-adv-x="1806" 
d="M1305 354q199 197 195 472q-4 276 -202 466q-199 190 -473 190t-470 -195q-195 -196 -195 -467t196 -465t472 -196t477 195zM831 8q-336 0 -585 234q-246 238 -246 572t240 577q244 243 582 243t586 -234q247 -234 247 -568q0 -336 -244 -580t-580 -244z" />
    <glyph glyph-name="one" unicode="1" horiz-adv-x="616" 
d="M449 1221v-1184h-156v1212q0 82 -80 162q-51 51 -172 57l-41 2v140h41q182 0 295 -102t113 -287z" />
    <glyph glyph-name="two" unicode="2" horiz-adv-x="1132" 
d="M977 182v-145h-977v147l721 693q137 131 128 276t-105 237t-233 93q-137 3 -241 -95t-104 -235v-53h-156v53q0 203 150 344q152 141 350 138t333 -125q158 -144 158 -375q0 -197 -163 -357l-623 -596h762z" />
    <glyph glyph-name="three" unicode="3" horiz-adv-x="1144" 
d="M158 532v-30q0 -139 100 -238q102 -98 242 -98t241 104q103 110 97 260t-112 242t-267 92h-64v140l60 -5q117 -10 200 62q86 70 82 179t-65 175q-62 66 -158 72t-173 -68t-77 -176v-24h-158v14q0 168 120 288q120 121 283 117t277 -120t109 -275q-2 -190 -166 -301
q256 -129 268 -420q6 -209 -145 -362q-152 -152 -357 -150t-350 148t-145 352v22h158z" />
    <glyph glyph-name="four" unicode="4" horiz-adv-x="1243" 
d="M791 469v920l-605 -920h605zM954 326v-289h-163v289h-791v143l758 1141h194v-1141h142v-143h-140z" />
    <glyph glyph-name="five" unicode="5" horiz-adv-x="1196" 
d="M154 535q0 -147 114 -261t269 -114q156 2 262 121q111 119 111 281t-116 283q-116 120 -276 111q-100 -6 -182 -53t-129 -110l-123 45l139 774h711v-142h-584l-80 -436q125 76 277 76q219 0 369 -161t153 -381q4 -220 -141 -384q-144 -164 -364 -177t-390 144t-174 384
h154z" />
    <glyph glyph-name="six" unicode="6" horiz-adv-x="1353" 
d="M613 1073q-179 0 -318 -129q-143 -137 -143 -335t137 -322q121 -113 307 -113t320 136q133 136 133 324t-129 316q-128 123 -307 123zM1202 636q0 -257 -181 -438q-181 -182 -425 -182t-414 160q-182 176 -182 432t184 441l561 561h216l-390 -389q263 16 447 -156
t184 -429z" />
    <glyph glyph-name="seven" unicode="7" horiz-adv-x="1021" 
d="M176 766v147h313l248 547h-737v146h905v-146l-248 -547h45v-147h-114l-332 -731h-168l332 731h-244z" />
    <glyph glyph-name="eight" unicode="8" 
d="M733 737q-103 100 -241 97t-236 -103t-96 -238q2 -137 97 -233t234 -98t246 99t103 241t-107 235zM502 981q110 0 186 77t74 180t-76 175t-177 74t-183 -69t-83 -177t73 -183t186 -77zM915 1231q-6 -133 -45 -193t-137 -123q254 -125 266 -413q8 -205 -155 -357
q-164 -150 -377 -133q-195 12 -333 150t-134 334q6 297 264 422q-182 121 -176 325q6 166 129 282q123 117 291 113t293 -125t114 -282z" />
    <glyph glyph-name="nine" unicode="9" horiz-adv-x="1333" 
d="M610 1473q-186 -1 -319 -139t-133 -323t127 -311t309 -127q182 0 321 133t139 331t-136 323q-122 113 -308 113zM6 1012q0 258 180 437t425 179t413 -160q184 -172 184 -431t-184 -439l-563 -563h-215l391 391q-259 -18 -445 155t-186 431z" />
    <glyph glyph-name="colon" unicode=":" horiz-adv-x="323" 
d="M158 539v-269h-158v269h158zM158 1360v-268h-158v268h158z" />
    <glyph glyph-name="semicolon" unicode=";" horiz-adv-x="466" 
d="M336 307l-178 -413h-158l178 413h158zM336 1128v-268h-158v268h158z" />
    <glyph glyph-name="equal" unicode="=" horiz-adv-x="1173" 
d="M1075 700v-161h-1075v161h1075zM1075 1114v-162h-1075v162h1075z" />
    <glyph glyph-name="question" unicode="?" 
d="M608 233v-194h-166v194h166zM160 1120v-30h-160v36q0 208 153 358t363 153t361 -141q149 -144 149 -339t-141 -336l-115 -119q-147 -150 -160 -319h-170l9 68q8 90 53 171t198 234l74 74q84 84 86 218t-99 229t-245 99t-250 -102t-106 -254z" />
    <glyph glyph-name="at" unicode="@" horiz-adv-x="1042" 
d="M365 618q61 0 113 106t52 191q0 109 -73 109q-61 0 -119 -101t-59 -203q0 -102 86 -102zM0 844q0 190 132 322t312 132t308 -102q129 -102 129 -250t-90 -258q-90 -111 -207 -110q-25 4 -43 12q-43 29 -49 90l-37 -43q-49 -53 -120 -54t-119 57t-48 138q0 115 93 197
t176 82t104 -58l12 -34l25 77l108 2l-98 -356q-20 -76 20 -76q78 0 143 102t64 212q1 143 -107 225t-262 82t-266 -113q-112 -114 -112 -274t114 -280t279 -120q74 2 143 23q152 47 191 156h82q-88 -223 -418 -242q-190 0 -326 135q-133 136 -133 326z" />
    <glyph glyph-name="A" unicode="A" horiz-adv-x="1705" 
d="M539 713h608l-301 721zM930 1616l669 -1577h-174l-223 532h-731l-221 -532h-201l705 1577h176z" />
    <glyph glyph-name="B" unicode="B" horiz-adv-x="1140" 
d="M164 188h287q182 0 284 86t93 233t-113 219t-273 73h-278v-611zM164 942h287q121 0 215 73t94 195t-98 191q-88 68 -220 67h-278v-526zM502 39h-502v1577h446q188 0 330 -114t142 -292q0 -211 -181 -327q244 -115 254 -396q6 -188 -142 -318t-347 -130z" />
    <glyph glyph-name="C" unicode="C" horiz-adv-x="1550" 
d="M0 836q0 344 240 573q233 229 571 227q238 -4 428 -120q186 -117 287 -314h-178q-195 285 -549 281q-261 1 -451 -189t-196 -460t188 -476q197 -201 471 -200q159 0 307 82t232 204h176q-109 -204 -294 -318t-421 -118q-334 -2 -573 240q-238 244 -238 588z" />
    <glyph glyph-name="D" unicode="D" horiz-adv-x="1462" 
d="M152 186h374q268 0 456 198t180 462q-7 264 -208 442t-473 178h-329v-1280zM535 39h-535v1575h457q377 0 621 -225t243 -557q0 -332 -234 -562q-230 -231 -552 -231z" />
    <glyph glyph-name="E" unicode="E" horiz-adv-x="942" 
d="M860 186v-147h-452q-182 0 -295 102t-113 285v801q0 182 113 284t295 103h452v-148h-452q-123 0 -172 -49q-78 -84 -78 -164v-340h526v-149h-526v-365q0 -80 78 -163q49 -49 172 -50h452z" />
    <glyph glyph-name="F" unicode="F" horiz-adv-x="921" 
d="M158 764v-725h-158v1188q0 182 113 284t295 103h452v-148h-452q-123 0 -172 -49q-78 -84 -78 -164v-340h526v-149h-526z" />
    <glyph glyph-name="G" unicode="G" horiz-adv-x="1740" 
d="M834 1638q256 0 437 -104t308 -342h-176q-207 303 -578 299q-266 -2 -466 -193q-201 -190 -207 -462t192 -464t490 -210q198 -14 392 124t261 337l-883 2v141l1073 -2q-37 -367 -319 -580q-240 -176 -514 -174q-344 4 -596 243t-248 579t242 573q242 233 592 233z" />
    <glyph glyph-name="H" unicode="H" horiz-adv-x="1284" 
d="M1108 1614v-1575h-152v725h-802v-725h-154v1575h154v-701h802v701h152z" />
    <glyph glyph-name="I" unicode="I" horiz-adv-x="333" 
d="M158 1616v-1577h-158v1577h158z" />
    <glyph glyph-name="J" unicode="J" horiz-adv-x="1009" 
d="M838 1616v-1221q0 -164 -125 -276q-127 -111 -295 -111t-291 117q-121 121 -127 285h156q4 -102 80 -171t181 -75t183 64t78 169v1219h160z" />
    <glyph glyph-name="K" unicode="K" horiz-adv-x="1200" 
d="M158 39h-158v1577h166v-897l721 897h200l-622 -768l622 -809h-190l-537 684l-202 -256v-428z" />
    <glyph glyph-name="L" unicode="L" horiz-adv-x="915" 
d="M862 188v-149h-452q-184 0 -297 102t-113 287v1188h158v-1217q0 -80 78 -161q49 -49 174 -50h452z" />
    <glyph glyph-name="M" unicode="M" horiz-adv-x="1818" 
d="M1645 1616v-1577h-160v1393l-600 -1393h-133l-594 1391l4 -1391h-162v1577h246l569 -1360l588 1360h242z" />
    <glyph glyph-name="N" unicode="N" horiz-adv-x="1419" 
d="M1245 1616v-1577h-176l-905 1372v-1372h-164v1577h213l870 -1323v1323h162z" />
    <glyph glyph-name="O" unicode="O" horiz-adv-x="1808" 
d="M356 358q198 -193 474 -196t477 195t199 471q-2 272 -205 464q-202 192 -474 192t-470 -193q-197 -194 -197 -466t196 -467zM831 8q-338 0 -585 236q-246 236 -246 572t240 579q244 243 582 243t586 -231q249 -231 249 -569t-244 -584t-582 -246z" />
    <glyph glyph-name="P" unicode="P" horiz-adv-x="1136" 
d="M164 809h360q154 0 256 94q113 97 106 243t-118 232q-106 88 -254 88h-350v-657zM164 666v-627h-164v1575h506q231 0 388 -139t154 -342q-4 -203 -148 -335t-345 -132h-391z" />
    <glyph glyph-name="Q" unicode="Q" horiz-adv-x="1779" 
d="M1483 825q0 276 -197 471q-193 197 -470 197t-473 -196t-196 -472t197 -471t472 -195t471 195t196 471zM1632 0h-41q-207 0 -327 135q-207 -133 -447 -133q-337 0 -577 240t-240 578t240 577t578 239t576 -240t238 -580q0 -341 -246 -580q41 -54 81 -72t124 -23l41 -2
v-139z" />
    <glyph glyph-name="R" unicode="R" horiz-adv-x="1220" 
d="M467 752q209 0 329 108t112 260q-8 154 -110 250q-103 96 -284 96h-352v-1427h-162v1575h504q260 0 417 -144t152 -370q-2 -182 -124 -318t-300 -151l-45 -4l436 -588h-194l-533 713h154z" />
    <glyph glyph-name="S" unicode="S" horiz-adv-x="1075" 
d="M909 1208h-166q1 111 -73 191t-186 86t-198 -75t-83 -193q2 -184 182 -240l190 -59q367 -115 369 -443q2 -190 -137 -330q-139 -135 -334 -135t-332 134t-141 339h166q-2 -125 87 -220t219 -98t226 89t93 225q-6 219 -291 307l-168 52q-133 41 -207 142t-76 243
q-4 174 129 296q133 123 309 119t299 -129t123 -301z" />
    <glyph glyph-name="T" unicode="T" horiz-adv-x="980" 
d="M514 1466v-1427h-158v1427h-356v148h872v-148h-358z" />
    <glyph glyph-name="U" unicode="U" horiz-adv-x="1234" 
d="M1067 1618v-1067q0 -231 -158 -388t-383 -153q-226 4 -376 160t-150 387v1061h156v-1032q0 -180 108 -301t268 -121t269 112t108 279v1063h158z" />
    <glyph glyph-name="V" unicode="V" horiz-adv-x="1558" 
d="M1450 1618l-647 -1579h-156l-647 1579h168l557 -1385l559 1385h166z" />
    <glyph glyph-name="W" unicode="W" horiz-adv-x="2129" 
d="M2003 1618l-447 -1579h-217l-346 1294l-334 -1294h-217l-442 1579h162l387 -1368l373 1368h145l385 -1362l375 1362h176z" />
    <glyph glyph-name="X" unicode="X" horiz-adv-x="1390" 
d="M723 850l551 -811h-184l-457 680l-449 -680h-184l532 809l-514 770h191l422 -631l411 631h181z" />
    <glyph glyph-name="Y" unicode="Y" horiz-adv-x="1331" 
d="M692 39h-160v532l-532 1047h164l446 -889l447 889h174l-539 -1049v-530z" />
    <glyph glyph-name="Z" unicode="Z" horiz-adv-x="1052" 
d="M948 188v-149h-973v135l770 1294h-745v150h920v-143l-760 -1287h788z" />
    <glyph glyph-name="backslash" unicode="\" horiz-adv-x="921" 
d="M150 1618l663 -1579h-147l-666 1579h150z" />
    <glyph glyph-name="underscore" unicode="_" horiz-adv-x="1292" 
d="M1384 -49v-131h-1384v131h1384z" />
    <glyph glyph-name="grave" unicode="`" horiz-adv-x="522" 
d="M156 1618l180 -414h-160l-176 414h156z" />
    <glyph glyph-name="a" unicode="a" horiz-adv-x="1361" 
d="M603 1083q-183 0 -313 -130t-134 -318t120 -324q125 -135 312 -144q186 -9 322 132t133 329t-130 322q-127 133 -310 133zM1198 39h-151v182q-190 -217 -467 -209q-244 10 -413 188t-169 429q0 250 181 433t433 173t423 -189t163 -421v-586z" />
    <glyph glyph-name="b" unicode="b" horiz-adv-x="1333" 
d="M593 1083q-183 0 -310 -133q-127 -132 -131 -320t133 -331q139 -141 323 -133t310 145q124 137 122 321t-133 318q-131 133 -314 133zM-4 1618h154v-590q170 197 427 207t439 -174t182 -433t-169 -427q-169 -177 -417 -187t-436 174q-186 185 -180 437v993z" />
    <glyph glyph-name="c" unicode="c" horiz-adv-x="1292" 
d="M1210 383l-16 -35q-182 -340 -569 -336q-253 2 -437 177t-188 429q-2 254 180 435q190 184 445 186q182 2 344 -96q156 -98 217 -238l22 -51h-176q-133 225 -401 231q-180 2 -327 -133q-146 -135 -146 -325t139 -330q139 -135 330 -133q272 2 407 219h176z" />
    <glyph glyph-name="d" unicode="d" horiz-adv-x="1388" 
d="M934 293q137 143 133 329t-131 320q-127 133 -309 134q-183 1 -315 -130q-132 -132 -135 -318t123 -324t314 -146t320 135zM1223 1610v-994q6 -252 -181 -436q-188 -182 -436 -175t-416 184t-168 429t183 436q182 184 437 176q255 -9 427 -208v588h154z" />
    <glyph glyph-name="e" unicode="e" horiz-adv-x="1347" 
d="M160 713h895q-35 164 -154 264t-287 103t-294 -97t-160 -270zM1208 653v-84h-1048q18 -177 151 -291t307 -112q275 2 396 256h166q-66 -188 -222 -298t-346 -114q-242 -4 -426 176t-188 434t188 444t451 175q235 -16 403 -191t168 -395z" />
    <glyph glyph-name="f" unicode="f" horiz-adv-x="579" 
d="M158 1063v-1024h-158v1190q0 182 113 285t297 104h41v-139l-41 -2q-123 -6 -174 -58q-78 -84 -78 -164v-49h293v-143h-293z" />
    <glyph glyph-name="g" unicode="g" horiz-adv-x="1363" 
d="M604 174q182 0 309 133t131 320t-132 329t-321 136q-185 -8 -311 -146t-124 -323t134 -317t314 -132zM1200 94q0 -221 -183 -366q-183 -144 -405 -136t-366 123q-145 115 -195 295h152q33 -119 153 -207t267 -88q174 4 299 121t125 281v110q-171 -199 -427 -207t-438 176
t-182 436q0 251 168 427t414 186q252 6 436 -178q186 -180 182 -434v-539z" />
    <glyph glyph-name="h" unicode="h" horiz-adv-x="1177" 
d="M1028 702v-663h-156v680q0 145 -108 254t-256 105t-248 -100q-100 -95 -100 -247v-692h-162v1579h158v-578q131 174 345 184q215 10 371 -144q156 -153 156 -378z" />
    <glyph glyph-name="i" unicode="i" horiz-adv-x="325" 
d="M154 1206v-1167h-154v1167h154zM154 1618v-272h-154v272h154z" />
    <glyph glyph-name="j" unicode="j" horiz-adv-x="464" 
d="M133 1208h158v-1198q0 -164 -58 -227q-67 -79 -188 -102l-43 -9v156q76 6 109 63q23 39 22 148v1169zM295 1618v-277h-162v277h162z" />
    <glyph glyph-name="k" unicode="k" horiz-adv-x="1048" 
d="M168 39h-168v1579h162v-1112l540 700h195l-444 -588l483 -579h-203l-379 459l-186 -236v-223z" />
    <glyph glyph-name="l" unicode="l" horiz-adv-x="331" 
d="M156 1618v-1579h-156v1579h156z" />
    <glyph glyph-name="m" unicode="m" horiz-adv-x="1847" 
d="M1679 737v-698h-161v717q0 135 -78 231t-205 96t-221 -83t-94 -209v-752h-164v752q0 127 -94 209t-220 83q-126 0 -204 -95q-76 -95 -76 -232v-717h-162v698q0 221 121 351t311 143q254 20 406 -217q152 238 405 217q188 -15 312 -145t124 -349z" />
    <glyph glyph-name="n" unicode="n" horiz-adv-x="1193" 
d="M1030 705v-666h-158v682q0 145 -107 253t-253 107q-146 0 -252 -106t-106 -254v-682h-158v666q0 225 147 377t369 151q222 1 370 -151t148 -377z" />
    <glyph glyph-name="o" unicode="o" horiz-adv-x="1357" 
d="M911 299q137 141 132 329t-131 321q-126 132 -307 133t-313 -131q-132 -131 -135 -319t122 -324t313 -144t319 135zM1200 619q0 -247 -183 -431t-432 -177t-417 185t-168 429q0 252 182 436t432 174t418 -189t168 -427z" />
    <glyph glyph-name="p" unicode="p" horiz-adv-x="1353" 
d="M597 164q183 0 315 132t134 316t-123 323q-126 138 -312 145t-322 -134q-133 -144 -131 -330t129 -319t310 -133zM154 -371h-152v994q0 252 183 435t431 176t418 -186q168 -179 168 -428t-182 -436q-182 -182 -436 -174t-430 207v-588z" />
    <glyph glyph-name="q" unicode="q" horiz-adv-x="1361" 
d="M603 164q183 0 310 133t130 321t-134 328q-133 143 -319 135t-313 -145q-125 -138 -121 -324t134 -317t313 -131zM1200 -371h-153v588q-177 -199 -431 -207t-436 176t-182 436t168 428q168 177 417 184t436 -177t181 -434v-994z" />
    <glyph glyph-name="r" unicode="r" horiz-adv-x="579" 
d="M152 737v-698h-164v1167h145v-166q47 92 141 142t185 47v-156q-106 -2 -174 -57q-69 -56 -101 -110t-32 -169z" />
    <glyph glyph-name="s" unicode="s" horiz-adv-x="890" 
d="M162 385v-39q0 -57 66 -123q66 -65 152 -61q87 4 139 56t56 142q2 150 -169 205l-138 43q-215 68 -225 293q-6 135 90 232q99 96 227 102t231 -77t111 -206l3 -34h-164v26q1 59 -51 98t-120 38t-116 -46q-47 -45 -49 -112q-8 -125 149 -179l135 -45q233 -80 250 -311
q12 -158 -110 -274q-123 -113 -275 -105t-252 116q-102 108 -102 261h162z" />
    <glyph glyph-name="t" unicode="t" horiz-adv-x="563" 
d="M426 143v-129q-426 0 -426 363v1239h158v-408h268v-145h-268v-660q0 -260 268 -260z" />
    <glyph glyph-name="u" unicode="u" horiz-adv-x="1206" 
d="M1032 1206v-665q0 -229 -146 -380t-370 -151t-371 152q-145 152 -145 379v665h158v-684q0 -147 106 -254q109 -104 252 -104t251 106t107 252v684h158z" />
    <glyph glyph-name="v" unicode="v" horiz-adv-x="1259" 
d="M1128 1206l-487 -1167h-162l-479 1167h164l397 -962l395 962h172z" />
    <glyph glyph-name="w" unicode="w" horiz-adv-x="1871" 
d="M1735 1206l-439 -1167h-182l-254 772l-239 -772h-179l-442 1167h166l362 -973l271 832h133l266 -825l369 966h168z" />
    <glyph glyph-name="x" unicode="x" horiz-adv-x="1150" 
d="M584 631l409 -592h-194l-307 467l-306 -467h-184l393 596l-397 571h178l316 -444l305 444h192z" />
    <glyph glyph-name="y" unicode="y" horiz-adv-x="1228" 
d="M1100 1206l-662 -1575h-168l176 445l-446 1130h170l373 -925l393 925h164z" />
    <glyph glyph-name="z" unicode="z" horiz-adv-x="952" 
d="M827 184v-145h-862v145l625 877h-602v145h792v-147l-618 -875h665z" />
    <glyph glyph-name="bar" unicode="|" horiz-adv-x="284" 
d="M0 -410v2048h109l2 -2048h-111z" />
    <glyph glyph-name="asciitilde" unicode="~" horiz-adv-x="1021" 
d="M866 907l-63 -94q-13 -23 -61 -51t-103 -39q-55 -10 -164 37l-127 53q-78 33 -115 27q-72 -8 -122 -88l-39 -66l-72 78l29 49q82 137 186 154q63 8 152 -25l176 -72q51 -20 88 -18q86 10 121 72l41 69z" />
    <glyph glyph-name="copyright" unicode="&#xa9;" horiz-adv-x="573" 
d="M213 1276q-55 0 -88 37t-33 98q0 139 123 139q84 0 107 -77l-52 -13q-8 45 -57 45q-66 0 -66 -92t66 -92q45 0 57 57l54 -16q-25 -86 -111 -86zM206 1579q-69 0 -118 -49t-49 -117t49 -116t119 -49t120 48t49 118t-51 117t-119 48zM416 1416q0 -85 -62 -145
q-62 -61 -146 -61t-146 58t-62 143q0 84 60 145q60 62 146 62t148 -58t62 -144z" />
    <glyph glyph-name="hyphen" unicode="&#xad;" horiz-adv-x="9433" 
d="M4207 260h32q57 0 58 29q0 23 -23 26h-67v-55zM4329 1432h33q57 0 58 28q0 23 -23 27h-68v-55zM4256 354q88 0 88 -63q0 -51 -60 -62q23 -14 52 -55l26 -43h-53l-33 49q-14 20 -37 41q-6 2 -24 2h-8v-92h-45v223h94zM4379 1526q85 0 88 -64q0 -51 -60 -61q24 -16 49 -55
l29 -43h-55l-31 47q-14 20 -39 43q-4 2 -22 2h-9v-92h-45v223h95zM5675 104q-55 0 -88 38t-33 98q0 141 125 141q84 0 107 -78l-54 -14q-8 45 -57 45q-66 0 -66 -91t66 -91q43 0 59 55l52 -17q-23 -86 -111 -86zM5433 1276q-55 0 -88 37t-32 98q0 139 124 139q84 0 107 -77
l-53 -13q-8 45 -58 45q-65 0 -65 -92t65 -92q46 0 58 57l53 -16q-25 -86 -111 -86zM4430 243q0 69 -50 117t-119 48t-118 -48t-49 -118q0 -68 49 -116t118 -49t119 48t50 118zM4553 1414q0 69 -50 117t-119 48t-118 -49t-49 -117t49 -116t118 -49t119 48t50 118zM5501 242
q0 -68 49 -116t119 -49t120 48t49 118t-51 117t-119 48t-118 -48q-49 -50 -49 -118zM5426 1579q-69 0 -118 -49t-49 -117t49 -116t119 -49t120 48t49 118t-51 117t-119 48zM8954 618q62 0 114 106t52 191q0 109 -74 109q-62 0 -120 -101t-58 -203t86 -102zM573 899v-149
h-573v149h573zM1266 1638v-2048h-54v2048h54zM2521 233v-194h-168v194h168zM2073 1120v-30h-162v36q1 208 153 358t362 153t362 -141t149 -353q0 -181 -141 -322l-115 -119q-150 -152 -158 -319h-172l8 68q7 90 53 171t199 234l74 74q84 84 87 218t-99 229q-103 95 -247 99
t-248 -102t-105 -254zM4468 246q0 -84 -59 -146q-59 -61 -146 -61t-148 58q-60 59 -60 143t60 145q59 61 145 61t147 -58t61 -142zM4760 223v-184h-46v184h-67v39h178v-39h-65zM5069 262v-223h-43v174l-43 -174h-45l-43 174v-174h-41v223h65l41 -153l41 153h68zM4592 1416
q0 -85 -60 -145q-60 -61 -147 -61t-147 58t-60 144t59 146t145 60t148 -58t62 -144zM5878 246q0 -84 -62 -146t-146 -61q-85 0 -147 58q-61 59 -61 143t60 145t146 61t148 -58t62 -142zM4821 1579v-184h-45v184h-66v39h179v-39h-68zM5130 1618v-223h-41v176l-45 -176h-43
l-43 176v-176h-43v223h68l41 -152l41 152h65zM6875 303l-176 -414h-160l180 414h156zM5636 1416q0 -85 -61 -145q-61 -61 -147 -61t-146 58q-61 58 -62 143q0 84 60 145q60 62 146 62q85 0 148 -58q62 -59 62 -144zM7508 291v-273h-158v273h158zM8104 539v-269h-158v269h158
zM8104 1360v-268h-158v268h158zM8589 844q0 190 132 322q131 132 311 132t309 -102t129 -252t-89 -258q-89 -109 -208 -108q-25 4 -43 12q-43 29 -49 90l-37 -43q-47 -53 -119 -54t-120 57t-48 138q-1 115 93 197t177 82t103 -58l12 -34l25 77l108 2l-98 -356
q-20 -76 21 -76q78 0 142 102t64 212q0 143 -107 225t-261 82t-266 -113q-112 -114 -113 -274q0 -160 114 -280t279 -120q74 2 143 23q152 47 191 156h82q-88 -223 -418 -242q-188 0 -324 135q-135 136 -135 326z" />
    <glyph glyph-name="hyphen" unicode="&#x2212;" horiz-adv-x="9433" 
d="M4207 260h32q57 0 58 29q0 23 -23 26h-67v-55zM4329 1432h33q57 0 58 28q0 23 -23 27h-68v-55zM4256 354q88 0 88 -63q0 -51 -60 -62q23 -14 52 -55l26 -43h-53l-33 49q-14 20 -37 41q-6 2 -24 2h-8v-92h-45v223h94zM4379 1526q85 0 88 -64q0 -51 -60 -61q24 -16 49 -55
l29 -43h-55l-31 47q-14 20 -39 43q-4 2 -22 2h-9v-92h-45v223h95zM5675 104q-55 0 -88 38t-33 98q0 141 125 141q84 0 107 -78l-54 -14q-8 45 -57 45q-66 0 -66 -91t66 -91q43 0 59 55l52 -17q-23 -86 -111 -86zM5433 1276q-55 0 -88 37t-32 98q0 139 124 139q84 0 107 -77
l-53 -13q-8 45 -58 45q-65 0 -65 -92t65 -92q46 0 58 57l53 -16q-25 -86 -111 -86zM4430 243q0 69 -50 117t-119 48t-118 -48t-49 -118q0 -68 49 -116t118 -49t119 48t50 118zM4553 1414q0 69 -50 117t-119 48t-118 -49t-49 -117t49 -116t118 -49t119 48t50 118zM5501 242
q0 -68 49 -116t119 -49t120 48t49 118t-51 117t-119 48t-118 -48q-49 -50 -49 -118zM5426 1579q-69 0 -118 -49t-49 -117t49 -116t119 -49t120 48t49 118t-51 117t-119 48zM8954 618q62 0 114 106t52 191q0 109 -74 109q-62 0 -120 -101t-58 -203t86 -102zM573 899v-149
h-573v149h573zM1266 1638v-2048h-54v2048h54zM2521 233v-194h-168v194h168zM2073 1120v-30h-162v36q1 208 153 358t362 153t362 -141t149 -353q0 -181 -141 -322l-115 -119q-150 -152 -158 -319h-172l8 68q7 90 53 171t199 234l74 74q84 84 87 218t-99 229q-103 95 -247 99
t-248 -102t-105 -254zM4468 246q0 -84 -59 -146q-59 -61 -146 -61t-148 58q-60 59 -60 143t60 145q59 61 145 61t147 -58t61 -142zM4760 223v-184h-46v184h-67v39h178v-39h-65zM5069 262v-223h-43v174l-43 -174h-45l-43 174v-174h-41v223h65l41 -153l41 153h68zM4592 1416
q0 -85 -60 -145q-60 -61 -147 -61t-147 58t-60 144t59 146t145 60t148 -58t62 -144zM5878 246q0 -84 -62 -146t-146 -61q-85 0 -147 58q-61 59 -61 143t60 145t146 61t148 -58t62 -142zM4821 1579v-184h-45v184h-66v39h179v-39h-68zM5130 1618v-223h-41v176l-45 -176h-43
l-43 176v-176h-43v223h68l41 -152l41 152h65zM6875 303l-176 -414h-160l180 414h156zM5636 1416q0 -85 -61 -145q-61 -61 -147 -61t-146 58q-61 58 -62 143q0 84 60 145q60 62 146 62q85 0 148 -58q62 -59 62 -144zM7508 291v-273h-158v273h158zM8104 539v-269h-158v269h158
zM8104 1360v-268h-158v268h158zM8589 844q0 190 132 322q131 132 311 132t309 -102t129 -252t-89 -258q-89 -109 -208 -108q-25 4 -43 12q-43 29 -49 90l-37 -43q-47 -53 -119 -54t-120 57t-48 138q-1 115 93 197t177 82t103 -58l12 -34l25 77l108 2l-98 -356
q-20 -76 21 -76q78 0 142 102t64 212q0 143 -107 225t-261 82t-266 -113q-112 -114 -113 -274q0 -160 114 -280t279 -120q74 2 143 23q152 47 191 156h82q-88 -223 -418 -242q-188 0 -324 135q-135 136 -135 326z" />
    <glyph glyph-name="registered" unicode="&#xae;" horiz-adv-x="573" 
d="M152 1432h34q58 0 58 26t-25 29h-67v-55zM203 1526q86 0 86 -64q0 -53 -58 -61q23 -16 50 -55l26 -43h-53l-33 47q-8 18 -37 43q-6 2 -22 2h-10v-92h-46v223h97zM206 1579q-69 0 -118 -49t-49 -117t49 -116t119 -49t120 48t49 118t-51 117t-119 48zM416 1416
q0 -85 -62 -145q-62 -61 -146 -61t-146 58t-62 143q0 84 60 145q60 62 146 62t148 -58t62 -144z" />
    <glyph glyph-name="twosuperior" unicode="&#xb2;" horiz-adv-x="598" 
 />
    <glyph glyph-name="udieresis" unicode="&#xfc;" horiz-adv-x="1034" 
d="M399 1411q-1 -49 -35 -83t-82 -34t-82 34t-34 83t34 83t82 34t82 -34t35 -83zM866 1411q0 -49 -34 -83t-81 -34q-48 0 -83 34t-35 83t35 83t83 34q47 0 81 -34t34 -83z" />
    <glyph glyph-name="dagger" unicode="&#x2020;" horiz-adv-x="1564" 
d="M297 340q-53 -10 -47 -64q8 -51 63 -43q51 8 45 62q-10 53 -61 45zM145 389q53 -8 64 45q8 54 -43 62q-50 8 -62 -44t41 -63zM164 1202q-40 27 -56 -1t14 -48t44 3t4 40zM1229 451q-51 -3 -45 -57t61 -50t45 57q-8 55 -61 50zM635 1495q5 -37 35 -33q16 2 24 8t6 25
q-5 45 -36 41t-29 -41zM963 1403l45 -25l36 70l-12 -6l-10 -8zM1202 1233l31 -39l45 68l-29 -13zM268 414l13 -15l-101 -96l-12 12zM197 383l-56 -41l-12 16l18 13q-33 3 -51 27t-12 57q14 70 86 57q31 -4 47 -29t10 -55q-1 -27 -30 -45zM332 414l-41 -58q31 8 55 -9t29 -48
q12 -72 -60 -84q-31 -6 -55 11t-28 47q-5 30 16 57l69 94zM438 131q-42 0 -54 32q-11 32 -3 56l33 74l16 -8l-31 -76q-18 -39 23 -55t55 22l33 76l16 -6l-30 -74q-16 -41 -58 -41zM162 573l8 -20l-86 22l-41 -79l-10 22l35 62l-35 10l-25 -10l-8 18l174 72l8 -17l-123 -51z
M303 449l12 -15l-22 -22l-14 14zM618 195l-2 -5l-18 5v2q4 18 -16 20q-20 4 -22 -12t11 -27l15 -8q28 -14 24 -38t-21 -34q-17 -12 -36 -6q-41 10 -31 51l19 -4l-2 -4q-4 -25 20 -26q25 -4 29 17t-15 30l-14 8q-23 14 -20 39q5 39 45 33t34 -41zM657 80h-20l4 188h18
l-2 -133l66 82h25l-56 -70l58 -69h-25l-45 55l-23 -27v-26zM780 221l15 -139l-19 -2l-14 139zM827 172l17 -82l-19 -4l-28 137l18 2l4 -18q6 27 33 29l4 -17q-39 -10 -29 -47zM774 270l4 -32l-18 -2l-4 32zM940 186l78 -45l-23 -8l-61 35l-12 -33l10 -26l-19 -7l-65 179
l18 6l45 -125l33 100l21 8zM1077 182q6 -14 -6 -21t-20 7t5 20t21 -6zM86 1182q0 51 49 51q23 1 53 -19t40 -56t-17 -71l-14 11q36 50 -13 92q10 -23 -6 -41q-27 -41 -65 -14q-27 14 -27 47zM1194 305l2 -4q8 -37 -20 -65t-61 -24q-34 3 -52 28t-14 55q10 59 67 65
q19 2 43 -10l-16 -12q-25 10 -49 -3t-27 -40q-8 -57 47 -64q27 -5 46 15t18 47zM313 1247q0 -49 -53 -65l-8 16q14 2 36 24t-4 46t-57 -11q-6 -4 -14 -16l-49 62l53 53l12 -13l-41 -43l25 -32q16 24 40 30t42 -10t18 -41zM344 823q0 -155 109 -263t263 -108t262 110
q108 108 108 262t-110 262q-108 108 -245 108t-231 -70v158q98 45 209 45q211 0 363 -143t153 -353q0 -210 -150 -360q-151 -149 -359 -149t-364 145q-152 145 -152 349t144 353v-346zM932 825q0 -90 -64 -153q-64 -64 -152 -64t-152 64t-64 153t63 153t153 64t152 -64
q64 -64 64 -153zM1294 350q-18 -23 -49 -24q-70 -6 -80 65q-3 29 15 53t49 25q70 6 80 -66q3 -30 -15 -53zM313 1432l90 -132l-16 -12l-80 115l-14 -29l-12 12l16 35zM467 1417l6 -14l-53 -25l-8 15zM1376 469l-8 -16l-78 28q-51 20 -37 70q8 27 43 37q-20 27 -10 49
q10 21 32 31t46 2l78 -31l-8 -18l-80 30q-12 6 -29 2q-37 -10 -20 -47q6 -16 20 -18l84 -33l-8 -18l-84 32q-33 13 -45 -21t24 -48zM530 1528q34 0 42 -35q9 -35 -29 -96l-8 -15l67 19l6 -17l-98 -28l-4 14l12 21q41 73 33 99q-7 26 -31 20t-35 -25l-12 14q23 29 57 29z
M635 1384l-2 19q63 -2 67 63q-12 -16 -36 -20q-46 -2 -50 50t50 56q27 2 41 -14t16 -49q6 -84 -66 -100q-16 -5 -20 -5zM739 1401l9 16q14 -10 42 -15t31 25q2 33 -37 39h-10l2 17q47 -9 49 18t-24 29q-18 4 -33 -4l-2 14q23 10 43 8q45 -6 39 -45q0 -6 -18 -17t-17 -16
q33 -12 31 -45q-6 -47 -64 -41q-25 3 -41 17zM934 1427l-6 -14l-58 19l4 14zM1047 1360l-9 -14l-18 8l-21 -39l-18 10l20 39l-67 33l8 12l109 59l20 -10l-45 -88zM1303 1262l-97 -146l-14 19l31 45l-37 47l-51 -19l-14 16l-17 15l8 96l-25 -4l-38 -49l-17 14l105 129l16 -14
l-51 -61h2q16 4 20 4l78 16l21 -16l-90 -17l-10 -111l163 56zM1356 1178l10 -21l-145 -78l-11 21z" />
    <glyph glyph-name="trademark" unicode="&#x2122;" horiz-adv-x="606" 
d="M111 1579v-184h-45v184h-66v39h176v-39h-65zM420 1618v-223h-41v176l-45 -176h-43l-43 176v-176h-43v223h67l41 -152l39 152h68z" />
    <glyph glyph-name="NULL" horiz-adv-x="0" 
 />
    <glyph glyph-name="CR" horiz-adv-x="1024" 
 />
  </font>
</defs>
</svg>
